<svg width="134" height="38" viewBox="0 0 134 38" fill="none" xmlns="http://www.w3.org/2000/svg">
<g filter="url(#filter0_dd_11_15)">
<path d="M27 2.10001H11C6.63696 2.10001 3.10001 5.63696 3.10001 10V26C3.10001 30.3631 6.63696 33.9 11 33.9H27C31.3631 33.9 34.9 30.3631 34.9 26V10C34.9 5.63696 31.3631 2.10001 27 2.10001Z" fill="white"/>
<path d="M27 2.10001H11C6.63696 2.10001 3.10001 5.63696 3.10001 10V26C3.10001 30.3631 6.63696 33.9 11 33.9H27C31.3631 33.9 34.9 30.3631 34.9 26V10C34.9 5.63696 31.3631 2.10001 27 2.10001Z" fill="url(#paint0_linear_11_15)"/>
<path d="M27 2.10001H11C6.63696 2.10001 3.10001 5.63696 3.10001 10V26C3.10001 30.3631 6.63696 33.9 11 33.9H27C31.3631 33.9 34.9 30.3631 34.9 26V10C34.9 5.63696 31.3631 2.10001 27 2.10001Z" stroke="#D0D5DD" stroke-width="0.2"/>
<path d="M18.3546 13.1828C22.7105 11.4504 27.4742 12.8185 29.6373 14.9133C30.106 15.3671 30.5041 15.8275 30.845 16.2852C31.0394 15.2107 31.0552 14.1405 30.8681 13.1055C30.1847 9.32649 26.6195 7.18561 23.4233 8.29149C20.2415 9.3924 19.0005 11.5321 19.0005 11.5321C19.0005 11.5321 17.7595 9.3924 14.5777 8.29149C11.3812 7.18561 7.81603 9.32672 7.1328 13.1055C6.62842 15.8944 7.58356 18.9392 9.61033 21.6298C10.0372 21.7732 10.4847 21.8809 10.9586 21.9431C13.7978 22.3163 14.8184 21.557 16.0178 21.0486C16.8142 20.7113 17.4134 21.0942 17.3843 21.3626C17.3392 21.7786 15.7693 22.4895 16.106 22.6388C17.4351 23.2285 19.0718 23.2334 20.3053 22.18C21.838 20.8712 22.4114 21.7659 22.4114 21.7659C22.4114 21.7659 21.6502 23.7076 19.3581 24.6717C17.4457 25.4761 15.4419 25.6743 13.6107 25.4683C15.19 26.5846 17.0035 27.5204 19.0005 28.1883C24.7099 26.2784 28.9276 22.1871 30.4145 17.9096C29.4072 16.9157 28.1716 16.2996 26.6988 16.0763C23.8674 15.6471 22.8322 16.3863 21.6228 16.8708C20.8198 17.1926 20.2285 16.7978 20.263 16.5299C20.3161 16.1148 21.8999 15.4351 21.5661 15.279C20.249 14.6633 18.6125 14.626 17.3585 15.6549C15.8003 16.9332 15.2446 16.0274 15.2446 16.0274C15.2446 16.0274 16.0438 14.1015 18.3546 13.1828ZM17.2709 18.5052H18.3709V17.4052H19.6296V18.5052H20.7296V19.7639H19.6296V20.8639H18.3709V19.7639H17.2709V18.5052Z" fill="url(#paint1_linear_11_15)"/>
<path d="M17.2709 18.5052H18.3709V17.4052H19.6296V18.5052H20.7295V19.7639H19.6378C21.2597 20.5834 24.2383 21.8027 27.8177 22.3451C28.9956 20.9517 29.8813 19.4428 30.4143 17.9096C29.4069 16.9157 28.1713 16.2996 26.6986 16.0763C23.8672 15.647 22.8319 16.3863 21.6226 16.8708C20.8196 17.1926 20.2282 16.7978 20.2627 16.5299C20.3159 16.1148 21.8997 15.4351 21.5659 15.279C20.2488 14.6633 18.6123 14.626 17.3583 15.6548C15.8 16.9332 15.2443 16.0274 15.2443 16.0274C15.2443 16.0274 16.0438 14.1013 18.3543 13.1823C22.7102 11.4499 27.4739 12.818 29.637 14.9128C30.1057 15.3666 30.5038 15.8271 30.8447 16.2847C31.0392 15.2102 31.055 14.14 30.8679 13.105C30.1844 9.326 26.6192 7.18512 23.423 8.291C20.2412 9.39191 19.0002 11.5316 19.0002 11.5316C19.0002 11.5316 17.7592 9.39191 14.5774 8.291C12.7519 7.65927 10.8067 8.0883 9.34619 9.27521C10.0323 10.7442 10.836 12.1168 13.1254 14.8773C14.9868 17.1222 17.2709 18.5052 17.2709 18.5052Z" fill="url(#paint2_linear_11_15)"/>
<path opacity="0.31" d="M27.277 9.64954C24.2712 8.13944 21.169 10.4892 20.1851 11.7299C21.882 11.3725 23.3668 11.1892 25.2457 11.5839C28.0252 12.1679 29.0654 13.1715 30.3064 14.6542C30.0871 11.9069 28.3519 10.1896 27.277 9.64954Z" fill="url(#paint3_linear_11_15)"/>
</g>
<path d="M47.464 29V5.16H56.136C57.736 5.16 59.144 5.45867 60.36 6.056C61.5973 6.632 62.5573 7.48533 63.24 8.616C63.9227 9.72533 64.264 11.0587 64.264 12.616C64.264 14.152 63.912 15.4747 63.208 16.584C62.5253 17.6933 61.576 18.5467 60.36 19.144C59.144 19.7413 57.736 20.04 56.136 20.04H51.24V29H47.464ZM51.24 16.68H56.232C57.0853 16.68 57.832 16.5093 58.472 16.168C59.112 15.8267 59.6133 15.3573 59.976 14.76C60.3387 14.1413 60.52 13.416 60.52 12.584C60.52 11.752 60.3387 11.0373 59.976 10.44C59.6133 9.82133 59.112 9.352 58.472 9.032C57.832 8.69067 57.0853 8.52 56.232 8.52H51.24V16.68ZM74.6155 29.384C73.3142 29.384 72.1728 29.096 71.1915 28.52C70.2102 27.9227 69.4422 27.1013 68.8875 26.056C68.3542 24.9893 68.0875 23.7627 68.0875 22.376V11.688H71.7035V22.056C71.7035 22.8453 71.8635 23.5387 72.1835 24.136C72.5035 24.7333 72.9515 25.2027 73.5275 25.544C74.1035 25.864 74.7648 26.024 75.5115 26.024C76.2795 26.024 76.9515 25.8533 77.5275 25.512C78.1035 25.1707 78.5515 24.6907 78.8715 24.072C79.2128 23.4533 79.3835 22.728 79.3835 21.896V11.688H82.9675V29H79.5435V25.608L79.9275 26.056C79.5222 27.1227 78.8502 27.944 77.9115 28.52C76.9728 29.096 75.8742 29.384 74.6155 29.384ZM87.8295 29V4.776H91.4455V29H87.8295ZM102.713 29.384C100.943 29.384 99.3852 28.9467 98.0412 28.072C96.7186 27.1973 95.7906 26.024 95.2572 24.552L98.0412 23.24C98.5106 24.2213 99.1506 25 99.9612 25.576C100.793 26.152 101.711 26.44 102.713 26.44C103.567 26.44 104.26 26.248 104.793 25.864C105.327 25.48 105.593 24.9573 105.593 24.296C105.593 23.8693 105.476 23.528 105.241 23.272C105.007 22.9947 104.708 22.7707 104.345 22.6C104.004 22.4293 103.652 22.3013 103.289 22.216L100.569 21.448C99.0759 21.0213 97.9559 20.3813 97.2092 19.528C96.4839 18.6533 96.1212 17.64 96.1212 16.488C96.1212 15.4427 96.3879 14.536 96.9212 13.768C97.4546 12.9787 98.1906 12.3707 99.1292 11.944C100.068 11.5173 101.124 11.304 102.297 11.304C103.876 11.304 105.284 11.6987 106.521 12.488C107.759 13.256 108.633 14.3333 109.145 15.72L106.361 17.032C106.02 16.2 105.476 15.5387 104.729 15.048C104.004 14.5573 103.183 14.312 102.265 14.312C101.476 14.312 100.847 14.504 100.377 14.888C99.9079 15.2507 99.6732 15.7307 99.6732 16.328C99.6732 16.7333 99.7799 17.0747 99.9932 17.352C100.207 17.608 100.484 17.8213 100.825 17.992C101.167 18.1413 101.519 18.2693 101.881 18.376L104.697 19.208C106.127 19.6133 107.225 20.2533 107.993 21.128C108.761 21.9813 109.145 23.0053 109.145 24.2C109.145 25.224 108.868 26.1307 108.313 26.92C107.78 27.688 107.033 28.296 106.073 28.744C105.113 29.1707 103.993 29.384 102.713 29.384ZM121.68 29.384C120.016 29.384 118.491 28.9893 117.104 28.2C115.739 27.4107 114.651 26.3333 113.84 24.968C113.03 23.6027 112.624 22.056 112.624 20.328C112.624 18.5787 113.03 17.032 113.84 15.688C114.651 14.3227 115.739 13.256 117.104 12.488C118.47 11.6987 119.995 11.304 121.68 11.304C123.387 11.304 124.912 11.6987 126.256 12.488C127.622 13.256 128.699 14.3227 129.488 15.688C130.299 17.032 130.704 18.5787 130.704 20.328C130.704 22.0773 130.299 23.6347 129.488 25C128.678 26.3653 127.59 27.4427 126.224 28.232C124.859 29 123.344 29.384 121.68 29.384ZM121.68 26.024C122.704 26.024 123.611 25.7787 124.4 25.288C125.19 24.7973 125.808 24.1253 126.256 23.272C126.726 22.3973 126.96 21.416 126.96 20.328C126.96 19.24 126.726 18.2693 126.256 17.416C125.808 16.5627 125.19 15.8907 124.4 15.4C123.611 14.9093 122.704 14.664 121.68 14.664C120.678 14.664 119.771 14.9093 118.96 15.4C118.171 15.8907 117.542 16.5627 117.072 17.416C116.624 18.2693 116.4 19.24 116.4 20.328C116.4 21.416 116.624 22.3973 117.072 23.272C117.542 24.1253 118.171 24.7973 118.96 25.288C119.771 25.7787 120.678 26.024 121.68 26.024Z" fill="white"/>
<defs>
<filter id="filter0_dd_11_15" x="0" y="0" width="38" height="38" filterUnits="userSpaceOnUse" color-interpolation-filters="sRGB">
<feFlood flood-opacity="0" result="BackgroundImageFix"/>
<feColorMatrix in="SourceAlpha" type="matrix" values="0 0 0 0 0 0 0 0 0 0 0 0 0 0 0 0 0 0 127 0" result="hardAlpha"/>
<feOffset dy="1"/>
<feGaussianBlur stdDeviation="1"/>
<feColorMatrix type="matrix" values="0 0 0 0 0.0627451 0 0 0 0 0.0941176 0 0 0 0 0.156863 0 0 0 0.06 0"/>
<feBlend mode="normal" in2="BackgroundImageFix" result="effect1_dropShadow_11_15"/>
<feColorMatrix in="SourceAlpha" type="matrix" values="0 0 0 0 0 0 0 0 0 0 0 0 0 0 0 0 0 0 127 0" result="hardAlpha"/>
<feOffset dy="1"/>
<feGaussianBlur stdDeviation="1.5"/>
<feColorMatrix type="matrix" values="0 0 0 0 0.0627451 0 0 0 0 0.0941176 0 0 0 0 0.156863 0 0 0 0.1 0"/>
<feBlend mode="normal" in2="effect1_dropShadow_11_15" result="effect2_dropShadow_11_15"/>
<feBlend mode="normal" in="SourceGraphic" in2="effect2_dropShadow_11_15" result="shape"/>
</filter>
<linearGradient id="paint0_linear_11_15" x1="19" y1="2.00001" x2="19" y2="34" gradientUnits="userSpaceOnUse">
<stop stop-color="white"/>
<stop offset="1" stop-color="#D0D5DD"/>
</linearGradient>
<linearGradient id="paint1_linear_11_15" x1="10.1989" y1="24.2137" x2="27.8347" y2="6.57791" gradientUnits="userSpaceOnUse">
<stop stop-color="#0076C1"/>
<stop offset="0.0737" stop-color="#0B82C6"/>
<stop offset="0.2766" stop-color="#269ED3"/>
<stop offset="0.4546" stop-color="#36AFDA"/>
<stop offset="0.587" stop-color="#3CB5DD"/>
</linearGradient>
<linearGradient id="paint2_linear_11_15" x1="10.1388" y1="24.2537" x2="27.8274" y2="6.56509" gradientUnits="userSpaceOnUse">
<stop stop-color="#00A482"/>
<stop offset="1" stop-color="#79DD83"/>
</linearGradient>
<linearGradient id="paint3_linear_11_15" x1="24.8608" y1="13.5073" x2="28.5288" y2="10.1132" gradientUnits="userSpaceOnUse">
<stop stop-color="#00A482"/>
<stop offset="1" stop-color="#79DD83"/>
</linearGradient>
</defs>
</svg>
